<svg
  height="20.249"
  viewBox="0 0 15.984 5.358"
  width="60.411"
  xmlns="http://www.w3.org/2000/svg"
>
    <g transform="translate(-139.419 -161.273)">
      <path
        d="m154.389 165.659c-.438.459-1.022.71-1.639.71h-10.743c-.618 0-1.201-.252-1.64-.71-.437-.458-.678-1.068-.678-1.717 0-1.338 1.04-2.427 2.318-2.427h10.743c.617 0 1.201.252 1.639.712.437.457.677 1.068.677 1.715 0 .649-.241 1.259-.677 1.717"
        fill="#fff"
      />
      <path
        d="m154.28 165.565c-.431.43-1.005.668-1.613.668h-10.569c-.61 0-1.182-.238-1.613-.668-.431-.432-.669-1.004-.669-1.614 0-1.259 1.023-2.28 2.281-2.28h10.569c.607 0 1.181.236 1.613.666.43.432.669 1.004.669 1.614s-.24 1.182-.669 1.614m.188-3.415c-.481-.481-1.12-.745-1.801-.745h-10.569c-1.404 0-2.547 1.14-2.547 2.546 0 .679.265 1.32.748 1.8.48.482 1.119.747 1.8.747h10.569c.681 0 1.32-.266 1.801-.747.481-.48.745-1.12.745-1.8 0-.682-.264-1.32-.745-1.801"
        fill="#ee2824"
      />
      <path
        d="m152.667 161.899h-10.569c-1.133 0-2.051.919-2.051 2.053 0 1.133.918 2.053 2.051 2.053h10.569c1.133 0 2.051-.92 2.051-2.053 0-1.134-.918-2.053-2.051-2.053"
        fill="#ee2824"
      />
      <path
        d="m155 166.452c.147 0 .27-.113.27-.267 0-.153-.123-.265-.27-.265s-.271.112-.271.265c0 .155.124.267.271.267m-.217-.267c0-.125.096-.223.217-.223s.217.098.217.223c0 .129-.095.223-.217.223-.121 0-.217-.095-.217-.223m.16.022h.054l.081.133h.053l-.085-.134c.044-.008.079-.031.079-.086 0-.06-.036-.088-.109-.088h-.117v.308h.046zm0-.041v-.095h.065c.031 0 .066.01.066.046 0 .048-.035.049-.074.049z"
        fill="#ee2824"
        fill-rule="evenodd"
      />
      <g fill="#fff">
        <path d="m141.684 162.812h1.163l-.031 1.046h.708l-.044-1.032h1.132l-.105 2.315h-.953l-.03-.807h-.721l-.014.793h-.987z" />
        <path d="m146.089 162.841h2.897l-.03.638h-1.733v.394h1.244l-.015.461-1.244-.001v.394h1.691l-.016.429h-2.687z" />
        <path d="m144.977 163.89h.713v.43h-.699z" />
        <path d="m149.328 164.334h.684v-.445h-.684z" />
        <path d="m150.524 165.172-.104-2.331h2.187c.427 0 .752.254.752.666 0 .454-.361.608-.489.617l.002.018c.214.047.345.158.345.442 0 .558-.528.59-.81.59z" />
      </g>
      <path
        d="m151.564 164.751v-.426h.397c.119 0 .237.068.237.208 0 .135-.15.218-.312.218z"
        fill="#ee2824"
      />
      <path
        d="m151.572 163.93v-.49h.395c.159 0 .316.09.316.253 0 .136-.185.241-.348.237-.138-.003-.363 0-.363 0"
        fill="#ee2824"
      />
    </g>
  </svg>
